<mxfile host="app.diagrams.net" agent="Mozilla/5.0 (Macintosh; Intel Mac OS X 10_15_7) AppleWebKit/537.36 (KHTML, like Gecko) Chrome/132.0.0.0 Safari/537.36" version="26.0.10">
  <diagram id="Y0WirgZKx9QSExaSbCMa" name="PÃ¡gina-1">
    <mxGraphModel dx="935" dy="1113" grid="0" gridSize="10" guides="1" tooltips="1" connect="1" arrows="1" fold="1" page="0" pageScale="1" pageWidth="827" pageHeight="1169" background="none" math="0" shadow="0">
      <root>
        <mxCell id="0" />
        <mxCell id="1" parent="0" />
        <mxCell id="node6" value="&lt;p style=&quot;margin:0px;margin-top:4px;text-align:center;&quot;&gt;&lt;b&gt;GestorCSV&lt;/b&gt;&lt;/p&gt;&lt;hr size=&quot;1&quot;/&gt;&lt;p style=&quot;margin:0 0 0 4px;line-height:1.6;&quot;&gt;+ readCSV(String): ArrayList&amp;lt;String[]&amp;gt;&lt;/p&gt;" style="verticalAlign=top;align=left;overflow=fill;fontSize=14;fontFamily=Helvetica;html=1;rounded=0;shadow=0;comic=0;labelBackgroundColor=none;strokeWidth=1;" parent="1" vertex="1">
          <mxGeometry x="847" y="832" width="274" height="59" as="geometry" />
        </mxCell>
        <mxCell id="node7" value="&lt;p style=&quot;margin:0px;margin-top:4px;text-align:center;&quot;&gt;&lt;b&gt;GestorJDBC&lt;/b&gt;&lt;/p&gt;&lt;hr size=&quot;1&quot;/&gt;&lt;p style=&quot;margin:0 0 0 4px;line-height:1.6;&quot;&gt;+ selectEstaciones(): void&lt;br/&gt;+ getJdbcReadDao(): JDBC_ReadDao&lt;br/&gt;+ getJdbcWriteDao(): JDBC_WriteDao&lt;br/&gt;+ getMysqlWrite(): MysqlWrite&lt;br/&gt;+ getMongoWrite(): MongoWrite&lt;br/&gt;+ getConnection(): Connection&lt;br/&gt;+ selectUbicaciones(): void&lt;br/&gt;+ insertAll(): void&lt;br/&gt;+ selectCarburantes(): void&lt;br/&gt;+ insertAllJson(String, String): void&lt;br/&gt;+ selectAll(): void&lt;br/&gt;+ selectEmpresas(): void&lt;br/&gt;+ selectPreciosCarburantes(): void&lt;/p&gt;" style="verticalAlign=top;align=left;overflow=fill;fontSize=14;fontFamily=Helvetica;html=1;rounded=0;shadow=0;comic=0;labelBackgroundColor=none;strokeWidth=1;" parent="1" vertex="1">
          <mxGeometry x="1874.5" y="1001" width="268" height="343" as="geometry" />
        </mxCell>
        <mxCell id="node9" value="&lt;p style=&quot;margin:0px;margin-top:4px;text-align:center;&quot;&gt;&lt;i&gt;&amp;lt;&amp;lt;interface&amp;gt;&amp;gt;&lt;/i&gt;&lt;br/&gt;&lt;b&gt;IReadDao&lt;/b&gt;&lt;/p&gt;&lt;hr size=&quot;1&quot;/&gt;&lt;p style=&quot;margin:0 0 0 4px;line-height:1.6;&quot;&gt;+ selectPreciosCarburantes(String): void&lt;br/&gt;+ buildCarburanteJson(ResultSet, Gson): JsonObject&lt;br/&gt;+ selectCarburantes(String): void&lt;br/&gt;+ selectUbicaciones(String): void&lt;br/&gt;+ selectEstaciones(String): void&lt;br/&gt;+ buildStationJson(ResultSet, Gson): JsonObject&lt;br/&gt;+ buildUbicacionJson(ResultSet, Gson): JsonObject&lt;br/&gt;+ buildPrecioCarburanteJson(ResultSet, Gson): JsonObject&lt;br/&gt;+ selectEmpresas(String): void&lt;br/&gt;+ buildPetroleraJson(ResultSet, Map&amp;lt;String, JsonObject&amp;gt;): JsonObject&lt;br/&gt;+ writeJsonToFile(JsonObject, String): void&lt;/p&gt;" style="verticalAlign=top;align=left;overflow=fill;fontSize=14;fontFamily=Helvetica;html=1;rounded=0;shadow=0;comic=0;labelBackgroundColor=none;strokeWidth=1;" parent="1" vertex="1">
          <mxGeometry x="1773" y="230" width="471" height="295" as="geometry" />
        </mxCell>
        <mxCell id="node16" value="&lt;p style=&quot;margin:0px;margin-top:4px;text-align:center;&quot;&gt;&lt;i&gt;&amp;lt;&amp;lt;interface&amp;gt;&amp;gt;&lt;/i&gt;&lt;br/&gt;&lt;b&gt;IWriteDao&lt;/b&gt;&lt;/p&gt;&lt;hr size=&quot;1&quot;/&gt;&lt;p style=&quot;margin:0 0 0 4px;line-height:1.6;&quot;&gt;+ insert(List&amp;lt;String[]&amp;gt;, String, List&amp;lt;String&amp;gt;): void&lt;br/&gt;+ buildSelectSQL(String, List&amp;lt;String&amp;gt;): String&lt;br/&gt;+ createInsertStatement(List&amp;lt;String[]&amp;gt;, String, List&amp;lt;String&amp;gt;): PreparedStatement&lt;br/&gt;+ buildInsertSQL(String, List&amp;lt;String&amp;gt;): String&lt;br/&gt;+ select(String, List&amp;lt;String&amp;gt;): List&amp;lt;String[]&amp;gt;&lt;/p&gt;" style="verticalAlign=top;align=left;overflow=fill;fontSize=14;fontFamily=Helvetica;html=1;rounded=0;shadow=0;comic=0;labelBackgroundColor=none;strokeWidth=1;" parent="1" vertex="1">
          <mxGeometry x="1170" y="230" width="534" height="180" as="geometry" />
        </mxCell>
        <mxCell id="node3" value="&lt;p style=&quot;margin:0px;margin-top:4px;text-align:center;&quot;&gt;&lt;b&gt;JDBC_ReadDao&lt;/b&gt;&lt;/p&gt;&lt;hr size=&quot;1&quot;/&gt;&lt;p style=&quot;margin:0 0 0 4px;line-height:1.6;&quot;&gt;+ buildPrecioCarburanteJson(ResultSet, Gson): JsonObject&lt;br/&gt;+ buildPetroleraJson(ResultSet, Map&amp;lt;String, JsonObject&amp;gt;): JsonObject&lt;br/&gt;+ buildCarburanteJson(ResultSet, Gson): JsonObject&lt;br/&gt;+ selectUbicaciones(String): void&lt;br/&gt;+ selectCarburantes(String): void&lt;br/&gt;+ buildUbicacionJson(ResultSet, Gson): JsonObject&lt;br/&gt;+ selectEmpresas(String): void&lt;br/&gt;+ selectPreciosCarburantes(String): void&lt;br/&gt;+ buildStationJson(ResultSet, Gson): JsonObject&lt;br/&gt;+ writeJsonToFile(JsonObject, String): void&lt;br/&gt;+ selectEstaciones(String): void&lt;/p&gt;" style="verticalAlign=top;align=left;overflow=fill;fontSize=14;fontFamily=Helvetica;html=1;rounded=0;shadow=0;comic=0;labelBackgroundColor=none;strokeWidth=1;" parent="1" vertex="1">
          <mxGeometry x="1773" y="617" width="471" height="295" as="geometry" />
        </mxCell>
        <mxCell id="node10" value="&lt;p style=&quot;margin:0px;margin-top:4px;text-align:center;&quot;&gt;&lt;b&gt;JDBC_WriteDao&lt;/b&gt;&lt;/p&gt;&lt;hr size=&quot;1&quot;/&gt;&lt;p style=&quot;margin:0 0 0 4px;line-height:1.6;&quot;&gt;+ select(String, List&amp;lt;String&amp;gt;): List&amp;lt;String[]&amp;gt;&lt;br/&gt;+ createInsertStatement(List&amp;lt;String[]&amp;gt;, String, List&amp;lt;String&amp;gt;): PreparedStatement&lt;br/&gt;+ buildSelectSQL(String, List&amp;lt;String&amp;gt;): String&lt;br/&gt;+ insert(List&amp;lt;String[]&amp;gt;, String, List&amp;lt;String&amp;gt;): void&lt;br/&gt;+ buildInsertSQL(String, List&amp;lt;String&amp;gt;): String&lt;/p&gt;" style="verticalAlign=top;align=left;overflow=fill;fontSize=14;fontFamily=Helvetica;html=1;rounded=0;shadow=0;comic=0;labelBackgroundColor=none;strokeWidth=1;" parent="1" vertex="1">
          <mxGeometry x="1214" y="620" width="534" height="151" as="geometry" />
        </mxCell>
        <mxCell id="node13" value="&lt;p style=&quot;margin:0px;margin-top:4px;text-align:center;&quot;&gt;&lt;i&gt;&amp;lt;&amp;lt;enumeration&amp;gt;&amp;gt;&lt;/i&gt;&lt;br/&gt;&lt;b&gt;MongoCollection&lt;/b&gt;&lt;/p&gt;&lt;hr size=&quot;1&quot;/&gt;&lt;p style=&quot;margin:0 0 0 4px;line-height:1.6;&quot;&gt;+ getCollection(): String&lt;br/&gt;+ values(): MongoCollection[]&lt;br/&gt;+ valueOf(String): MongoCollection&lt;/p&gt;" style="verticalAlign=top;align=left;overflow=fill;fontSize=14;fontFamily=Helvetica;html=1;rounded=0;shadow=0;comic=0;labelBackgroundColor=none;strokeWidth=1;" parent="1" vertex="1">
          <mxGeometry x="847" y="638" width="251" height="129" as="geometry" />
        </mxCell>
        <mxCell id="node8" value="&lt;p style=&quot;margin:0px;margin-top:4px;text-align:center;&quot;&gt;&lt;b&gt;MongoConnector&lt;/b&gt;&lt;/p&gt;&lt;hr size=&quot;1&quot;/&gt;&lt;p style=&quot;margin:0 0 0 4px;line-height:1.6;&quot;&gt;+ getDatabase(): MongoDatabase&lt;br/&gt;+ closeConnection(): void&lt;/p&gt;" style="verticalAlign=top;align=left;overflow=fill;fontSize=14;fontFamily=Helvetica;html=1;rounded=0;shadow=0;comic=0;labelBackgroundColor=none;strokeWidth=1;" parent="1" vertex="1">
          <mxGeometry x="1420" y="1100" width="310" height="85" as="geometry" />
        </mxCell>
        <mxCell id="node15" value="&lt;p style=&quot;margin:0px;margin-top:4px;text-align:center;&quot;&gt;&lt;b&gt;MongoToElasticBulk&lt;/b&gt;&lt;/p&gt;&lt;hr size=&quot;1&quot;/&gt;&lt;p style=&quot;margin:0 0 0 4px;line-height:1.6;&quot;&gt;+ main(String[]): void&lt;/p&gt;" style="verticalAlign=top;align=left;overflow=fill;fontSize=14;fontFamily=Helvetica;html=1;rounded=0;shadow=0;comic=0;labelBackgroundColor=none;strokeWidth=1;" parent="1" vertex="1">
          <mxGeometry x="847" y="230" width="209" height="59" as="geometry" />
        </mxCell>
        <mxCell id="node2" value="&lt;p style=&quot;margin:0px;margin-top:4px;text-align:center;&quot;&gt;&lt;b&gt;MongoWrite&lt;/b&gt;&lt;/p&gt;&lt;hr size=&quot;1&quot;/&gt;&lt;p style=&quot;margin:0 0 0 4px;line-height:1.6;&quot;&gt;+ insertarJsonEnBatches(String, String): void&lt;/p&gt;" style="verticalAlign=top;align=left;overflow=fill;fontSize=14;fontFamily=Helvetica;html=1;rounded=0;shadow=0;comic=0;labelBackgroundColor=none;strokeWidth=1;" parent="1" vertex="1">
          <mxGeometry x="1420" y="1010" width="311" height="59" as="geometry" />
        </mxCell>
        <mxCell id="node5" value="&lt;p style=&quot;margin:0px;margin-top:4px;text-align:center;&quot;&gt;&lt;b&gt;MysqlColumns&lt;/b&gt;&lt;/p&gt;&lt;hr size=&quot;1&quot;/&gt;" style="verticalAlign=top;align=left;overflow=fill;fontSize=14;fontFamily=Helvetica;html=1;rounded=0;shadow=0;comic=0;labelBackgroundColor=none;strokeWidth=1;" parent="1" vertex="1">
          <mxGeometry x="1420" y="1300" width="163" height="30" as="geometry" />
        </mxCell>
        <mxCell id="node4" value="&lt;p style=&quot;margin:0px;margin-top:4px;text-align:center;&quot;&gt;&lt;b&gt;MysqlConnector&lt;/b&gt;&lt;/p&gt;&lt;hr size=&quot;1&quot;/&gt;&lt;p style=&quot;margin:0 0 0 4px;line-height:1.6;&quot;&gt;+ getConnection(): Connection&lt;/p&gt;" style="verticalAlign=top;align=left;overflow=fill;fontSize=14;fontFamily=Helvetica;html=1;rounded=0;shadow=0;comic=0;labelBackgroundColor=none;strokeWidth=1;" parent="1" vertex="1">
          <mxGeometry x="1420" y="1210" width="310" height="59" as="geometry" />
        </mxCell>
        <mxCell id="node1" value="&lt;p style=&quot;margin:0px;margin-top:4px;text-align:center;&quot;&gt;&lt;i&gt;&amp;lt;&amp;lt;enumeration&amp;gt;&amp;gt;&lt;/i&gt;&lt;br/&gt;&lt;b&gt;MysqlQueries&lt;/b&gt;&lt;/p&gt;&lt;hr size=&quot;1&quot;/&gt;&lt;p style=&quot;margin:0 0 0 4px;line-height:1.6;&quot;&gt;+ getQuery(): String&lt;br/&gt;+ values(): MysqlQueries[]&lt;br/&gt;+ valueOf(String): MysqlQueries&lt;/p&gt;" style="verticalAlign=top;align=left;overflow=fill;fontSize=14;fontFamily=Helvetica;html=1;rounded=0;shadow=0;comic=0;labelBackgroundColor=none;strokeWidth=1;" parent="1" vertex="1">
          <mxGeometry x="847" y="472" width="220" height="129" as="geometry" />
        </mxCell>
        <mxCell id="node12" value="&lt;p style=&quot;margin:0px;margin-top:4px;text-align:center;&quot;&gt;&lt;b&gt;MysqlWrite&lt;/b&gt;&lt;/p&gt;&lt;hr size=&quot;1&quot;/&gt;&lt;p style=&quot;margin:0 0 0 4px;line-height:1.6;&quot;&gt;+ insertProvincias(): void&lt;br/&gt;+ insertCodigosPostales(): void&lt;br/&gt;- buildIdMap(List&amp;lt;String[]&amp;gt;, int, int): Map&amp;lt;String, Integer&amp;gt;&lt;br/&gt;+ insertCarburantes(): void&lt;br/&gt;+ insertEstaciones(): void&lt;br/&gt;- readCSV(String): ArrayList&amp;lt;String[]&amp;gt;&lt;br/&gt;+ insertLocalidades(): void&lt;br/&gt;+ insertMunicipios(): void&lt;br/&gt;- updateColumnsWithMap(ArrayList&amp;lt;String[]&amp;gt;, Map&amp;lt;String, Integer&amp;gt;, int): void&lt;br/&gt;+ insertEmpresas(): void&lt;br/&gt;- insertFromCSV(String, String, List&amp;lt;String&amp;gt;): void&lt;br/&gt;+ insertPrecios(): void&lt;br/&gt;+ insertRelacionCP_Localidad(): void&lt;/p&gt;" style="verticalAlign=top;align=left;overflow=fill;fontSize=14;fontFamily=Helvetica;html=1;rounded=0;shadow=0;comic=0;labelBackgroundColor=none;strokeWidth=1;" parent="1" vertex="1">
          <mxGeometry x="837" y="940" width="460" height="343" as="geometry" />
        </mxCell>
        <mxCell id="edge12" value="" style="html=1;rounded=1;edgeStyle=orthogonalEdgeStyle;dashed=0;startArrow=diamondThinstartSize=12;endArrow=openThin;endSize=12;strokeColor=#595959;exitX=0.833;exitY=0.000;exitDx=0;exitDy=0;entryX=0.500;entryY=1.000;entryDx=0;entryDy=0;" parent="1" source="node7" target="node3" edge="1">
          <mxGeometry width="50" height="50" relative="1" as="geometry">
            <Array as="points">
              <mxPoint x="2020" y="1001" />
              <mxPoint x="2020" y="946" />
              <mxPoint x="2009" y="946" />
            </Array>
          </mxGeometry>
        </mxCell>
        <mxCell id="label72" value="1" style="edgeLabel;resizable=0;html=1;align=left;verticalAlign=top;strokeColor=default;" parent="edge12" vertex="1" connectable="0">
          <mxGeometry x="1730" y="928" as="geometry" />
        </mxCell>
        <mxCell id="label76" value="1" style="edgeLabel;resizable=0;html=1;align=left;verticalAlign=top;strokeColor=default;" parent="edge12" vertex="1" connectable="0">
          <mxGeometry x="1948" y="928" as="geometry" />
        </mxCell>
        <mxCell id="label77" value="jdbcReadDao" style="edgeLabel;resizable=0;html=1;align=left;verticalAlign=top;strokeColor=default;" parent="edge12" vertex="1" connectable="0">
          <mxGeometry x="2008" y="920" as="geometry" />
        </mxCell>
        <mxCell id="edge24" value="" style="html=1;rounded=1;edgeStyle=orthogonalEdgeStyle;dashed=1;startArrow=none;endArrow=openThin;endSize=12;strokeColor=#595959;exitX=0.500;exitY=0.000;exitDx=0;exitDy=0;entryX=0.584;entryY=1.023;entryDx=0;entryDy=0;entryPerimeter=0;" parent="1" source="node7" target="node10" edge="1">
          <mxGeometry width="50" height="50" relative="1" as="geometry">
            <Array as="points">
              <mxPoint x="2008" y="956" />
              <mxPoint x="1526" y="956" />
            </Array>
          </mxGeometry>
        </mxCell>
        <mxCell id="edge1" value="" style="html=1;rounded=1;edgeStyle=orthogonalEdgeStyle;dashed=1;startArrow=none;endArrow=block;endSize=12;strokeColor=#008200;exitX=0.250;exitY=0.000;exitDx=0;exitDy=0;entryX=0.500;entryY=1.000;entryDx=0;entryDy=0;" parent="1" source="node3" target="node9" edge="1">
          <mxGeometry width="50" height="50" relative="1" as="geometry">
            <Array as="points" />
          </mxGeometry>
        </mxCell>
        <mxCell id="edge0" value="" style="html=1;rounded=1;edgeStyle=orthogonalEdgeStyle;dashed=1;startArrow=none;endArrow=block;endSize=12;strokeColor=#008200;exitX=0.426;exitY=-0.017;exitDx=0;exitDy=0;entryX=0.500;entryY=1.000;entryDx=0;entryDy=0;exitPerimeter=0;" parent="1" source="node10" target="node16" edge="1">
          <mxGeometry width="50" height="50" relative="1" as="geometry">
            <Array as="points" />
          </mxGeometry>
        </mxCell>
        <mxCell id="edge28" value="" style="html=1;rounded=1;edgeStyle=orthogonalEdgeStyle;dashed=1;startArrow=none;endArrow=openThin;endSize=12;strokeColor=#595959;exitX=0.325;exitY=0.001;exitDx=0;exitDy=0;entryX=0.500;entryY=1.001;entryDx=0;entryDy=0;exitPerimeter=0;" parent="1" edge="1">
          <mxGeometry width="50" height="50" relative="1" as="geometry">
            <Array as="points">
              <mxPoint x="952.25" y="940" />
              <mxPoint x="952.25" y="889" />
            </Array>
            <mxPoint x="961.75" y="940.3429999999998" as="sourcePoint" />
            <mxPoint x="959.25" y="889" as="targetPoint" />
          </mxGeometry>
        </mxCell>
        <mxCell id="edge19" value="" style="html=1;rounded=1;edgeStyle=orthogonalEdgeStyle;dashed=0;startArrow=diamondThinstartSize=12;endArrow=openThin;endSize=12;strokeColor=#595959;exitX=0.75;exitY=0;exitDx=0;exitDy=0;" parent="1" source="node12" edge="1">
          <mxGeometry width="50" height="50" relative="1" as="geometry">
            <Array as="points">
              <mxPoint x="1155" y="850" />
              <mxPoint x="1360" y="850" />
            </Array>
            <mxPoint x="1360" y="771" as="targetPoint" />
          </mxGeometry>
        </mxCell>
        <mxCell id="V8S9oT7DGyR7nr6IBu_5-1" value="" style="endArrow=none;dashed=1;html=1;dashPattern=1 3;strokeWidth=2;rounded=0;entryX=0.002;entryY=0.069;entryDx=0;entryDy=0;entryPerimeter=0;exitX=1;exitY=0.25;exitDx=0;exitDy=0;" edge="1" parent="1" source="node2" target="node7">
          <mxGeometry width="50" height="50" relative="1" as="geometry">
            <mxPoint x="1640" y="910" as="sourcePoint" />
            <mxPoint x="1690" y="860" as="targetPoint" />
          </mxGeometry>
        </mxCell>
      </root>
    </mxGraphModel>
  </diagram>
</mxfile>
